<svg width="63" height="48" viewBox="0 0 63 48" fill="none" xmlns="http://www.w3.org/2000/svg">
<path fill-rule="evenodd" clip-rule="evenodd" d="M61.068 8.61081L60.5797 7.51153L61.0465 8.64033L54.5871 17.5362L38.9393 38.5403V44.5067L42.1858 44.5067V47.7564L32.443 47.7564V44.5067L35.6928 44.5067V41.257L28.8226 40.6123L12.444 38.9442L6.38135 38.3201C6.11318 39.8428 4.84582 41.0208 3.24656 41.0208C1.45254 41.0208 0 39.5683 0 37.7711C0 35.9802 1.45248 34.5214 3.24656 34.5214C3.62963 34.5214 3.98719 34.6203 4.32872 34.7449L7.42468 26.9648H7.42474L16.555 4.02717H16.5549L18.158 0L21.1765 0.00362879L21.1773 0.00647134H23.5466L60.1945 0.0507426L63 5.95006L61.0678 8.61093L61.068 8.61081ZM57.8248 1.293V3.25303L22.3268 3.25297L35.2555 37.8539L59.7944 5.72375L57.8248 1.29288V1.29294V1.293ZM7.30403 35.5428L23.5175 37.257L32.258 38.1828L19.8337 3.48291V3.48285L13.711 19.1474L13.711 19.1474L7.30409 35.5428H7.30403Z" fill="#C92626"/>
</svg>
