<svg width="71" height="71" viewBox="0 0 71 71" fill="none" xmlns="http://www.w3.org/2000/svg">
<g clip-path="url(#clip0_1_957)">
<path d="M68.248 27.4703L68.248 27.4704C68.4635 27.8309 70.65 31.721 70.65 41.0443C70.65 50.3676 68.4634 54.2579 68.2479 54.6183L68.2478 54.6185L67.676 55.5756H56.3659V50.4391V50.0891H56.0159H54.8293H54.4793V50.4391V58.1936H27.5863L19.5444 51.0633L19.445 50.9752H19.3122H8.08666V49.0099V39.8248V39.4748H7.73666H4.6304H4.2804V39.8248V45.3846H0.35V29.6346H4.2804V35.1943V35.5443H4.6304H7.73666H8.08666V35.1943V26.0092V24.0439H15.4102H15.543L15.6424 23.9558L19.445 20.584H26.0299H26.3799V20.234V17.0869V16.7369H26.0299H24.3045V12.8065H40.0545V16.7369H38.3291H37.9791V17.0869V20.234V20.584H38.3291H44.6487L48.4513 23.9558L48.5507 24.0439H48.6835H54.4794V31.6497V31.9997H54.8294H56.0161H56.3661V31.6497V26.5133H67.6761L68.248 27.4703ZM30.6605 16.7372H30.3105V17.0872V20.2343V20.5843H30.6605H33.6987H34.0487V20.2343V17.0872V16.7372H33.6987H30.6605ZM65.0271 51.6451H65.2777L65.3585 51.4078C65.909 49.7898 66.7197 46.4831 66.7196 41.0446C66.7196 35.606 65.9088 32.2991 65.3585 30.6811L65.2778 30.4438H65.0271H60.6465H60.2965V30.7938V35.9302H50.5489V28.3245V27.9745H50.1989H47.0589L43.2563 24.6027L43.157 24.5146H43.0241H21.0696H20.9367L20.8374 24.6027L17.0348 27.9745H12.3672H12.0172V28.3245V46.6946V47.0446H12.3672H20.9366L28.9785 54.175L29.0779 54.2631H29.2107H50.1989H50.5489V53.9131V46.1585H60.2965V51.2951V51.6451H60.6465H65.0271Z" fill="#C92626" stroke="#E3E3E3" stroke-width="0.7"/>
</g>
<defs>
<clipPath id="clip0_1_957">
<rect width="71" height="71" fill="white"/>
</clipPath>
</defs>
</svg>
