<svg width="53" height="53" viewBox="0 0 53 53" fill="none" xmlns="http://www.w3.org/2000/svg">
<path d="M47.7354 29.1703L47.785 28.625H47.2375H44.875C44.2011 28.625 43.6784 28.4026 43.3254 28.0496C42.9724 27.6966 42.75 27.1739 42.75 26.5C42.75 25.8261 42.9724 25.3034 43.3254 24.9504C43.6784 24.5974 44.2011 24.375 44.875 24.375H47.2375H47.8086L47.7331 23.8089C47.1983 19.7976 45.8563 16.2932 43.4245 13.3209L43.0746 12.8933L42.6839 13.2839L41.1089 14.8589C40.876 15.0919 40.6628 15.2468 40.4391 15.3462C40.2176 15.4447 39.9604 15.5 39.625 15.5C39.2896 15.5 39.0324 15.4447 38.8109 15.3462C38.5871 15.2468 38.374 15.0919 38.141 14.8589C37.2863 14.0042 37.2863 12.7458 38.141 11.8911L39.716 10.3161L40.1298 9.90229L39.6566 9.55813C36.7132 7.41745 33.2238 5.80458 29.1911 5.26689L28.625 5.19141V5.7625V8.125C28.625 8.79887 28.4026 9.32158 28.0496 9.67457C27.6966 10.0276 27.1739 10.25 26.5 10.25C25.8261 10.25 25.3034 10.0276 24.9504 9.67457C24.5974 9.32159 24.375 8.79887 24.375 8.125V5.7625V5.19141L23.8089 5.26689C19.7976 5.80173 16.2932 7.14365 13.3209 9.57552L12.8933 9.92538L13.2839 10.3161L14.8589 11.8911C15.7137 12.7458 15.7137 14.0042 14.8589 14.8589C14.626 15.0919 14.4128 15.2468 14.1891 15.3462C13.9676 15.4447 13.7104 15.5 13.375 15.5C13.0396 15.5 12.7824 15.4447 12.5609 15.3462C12.3372 15.2468 12.124 15.0919 11.8911 14.8589L10.3161 13.2839L9.90229 12.8702L9.55813 13.3434C7.41745 16.2868 5.80458 19.7762 5.26689 23.8089L5.19141 24.375H5.7625H8.125C8.79887 24.375 9.32159 24.5974 9.67457 24.9504C10.0276 25.3034 10.25 25.8261 10.25 26.5C10.25 27.1739 10.0276 27.6966 9.67457 28.0496C9.32158 28.4026 8.79887 28.625 8.125 28.625H5.7625H5.21498L5.26455 29.1703C5.53548 32.1505 6.61771 34.8439 7.95042 37.2428L8.0933 37.5H8.3875H19.15H19.8437L19.6243 36.8419C19.3619 36.0546 19.125 35.3358 19.125 34.375C19.125 32.4034 19.8628 30.6943 21.0786 29.4786L21.3684 29.1887L21.141 28.8476L16.9479 22.558C16.284 21.4418 16.5343 20.1797 17.3299 19.5653C18.449 18.9074 19.7113 19.1651 20.3196 19.9679L25.0389 26.7846L25.188 27H25.45H25.4515H25.4531H25.4546H25.4562H25.4578H25.4593H25.4609H25.4625H25.4641H25.4657H25.4673H25.4689H25.4705H25.4721H25.4737H25.4754H25.477H25.4786H25.4803H25.4819H25.4836H25.4852H25.4869H25.4886H25.4903H25.492H25.4936H25.4953H25.497H25.4987H25.5005H25.5022H25.5039H25.5056H25.5073H25.5091H25.5108H25.5126H25.5143H25.5161H25.5178H25.5196H25.5214H25.5232H25.5249H25.5267H25.5285H25.5303H25.5321H25.5339H25.5357H25.5376H25.5394H25.5412H25.543H25.5449H25.5467H25.5485H25.5504H25.5523H25.5541H25.556H25.5578H25.5597H25.5616H25.5635H25.5654H25.5672H25.5691H25.571H25.5729H25.5749H25.5768H25.5787H25.5806H25.5825H25.5845H25.5864H25.5883H25.5903H25.5922H25.5942H25.5961H25.5981H25.6H25.602H25.604H25.6059H25.6079H25.6099H25.6119H25.6139H25.6159H25.6179H25.6199H25.6219H25.6239H25.6259H25.6279H25.6299H25.632H25.634H25.636H25.6381H25.6401H25.6421H25.6442H25.6462H25.6483H25.6503H25.6524H25.6545H25.6565H25.6586H25.6607H25.6627H25.6648H25.6669H25.669H25.6711H25.6732H25.6753H25.6774H25.6795H25.6816H25.6837H25.6858H25.6879H25.69H25.6921H25.6942H25.6964H25.6985H25.7006H25.7028H25.7049H25.707H25.7092H25.7113H25.7135H25.7156H25.7178H25.7199H25.7221H25.7243H25.7264H25.7286H25.7308H25.7329H25.7351H25.7373H25.7395H25.7416H25.7438H25.746H25.7482H25.7504H25.7526H25.7548H25.757H25.7592H25.7614H25.7636H25.7658H25.768H25.7702H25.7724H25.7746H25.7769H25.7791H25.7813H25.7835H25.7857H25.788H25.7902H25.7924H25.7947H25.7969H25.7991H25.8014H25.8036H25.8059H25.8081H25.8103H25.8126H25.8148H25.8171H25.8193H25.8216H25.8239H25.8261H25.8284H25.8306H25.8329H25.8352H25.8374H25.8397H25.8419H25.8442H25.8465H25.8488H25.851H25.8533H25.8556H25.8579H25.8601H25.8624H25.8647H25.867H25.8693H25.8715H25.8738H25.8761H25.8784H25.8807H25.883H25.8853H25.8875H25.8898H25.8921H25.8944H25.8967H25.899H25.9013H25.9036H25.9059H25.9082H25.9105H25.9128H25.9151H25.9174H25.9197H25.922H25.9243H25.9266H25.9289H25.9312H25.9335H25.9358H25.9381H25.9404H25.9427H25.945H25.9473H25.9496H25.9519H25.9542H25.9565H25.9589H25.9612H25.9635H25.9658H25.9681H25.9704H25.9727H25.975H25.9773H25.9796H25.9819H25.9842H25.9865H25.9888H25.9911H25.9935H25.9958H25.9981H26.0004H26.0027H26.005H26.0073H26.0096H26.0119H26.0142H26.0165H26.0188H26.0211H26.0234H26.0257H26.028H26.0303H26.0326H26.0349H26.0372H26.0395H26.0418H26.0441H26.0464H26.0487H26.051H26.0533H26.0556H26.0579H26.0602H26.0625H26.0647H26.067H26.0693H26.0716H26.0739H26.0762H26.0785H26.0807H26.083H26.0853H26.0876H26.0899H26.0921H26.0944H26.0967H26.099H26.1012H26.1035H26.1058H26.108H26.1103H26.1126H26.1148H26.1171H26.1194H26.1216H26.1239H26.1261H26.1284H26.1307H26.1329H26.1352H26.1374H26.1397H26.1419H26.1441H26.1464H26.1486H26.1509H26.1531H26.1553H26.1576H26.1598H26.162H26.1643H26.1665H26.1687H26.1709H26.1731H26.1754H26.1776H26.1798H26.182H26.1842H26.1864H26.1886H26.1908H26.193H26.1952H26.1974H26.1996H26.2018H26.204H26.2062H26.2084H26.2105H26.2127H26.2149H26.2171H26.2192H26.2214H26.2236H26.2257H26.2279H26.2301H26.2322H26.2344H26.2365H26.2387H26.2408H26.243H26.2451H26.2472H26.2494H26.2515H26.2536H26.2557H26.2579H26.26H26.2621H26.2642H26.2663H26.2684H26.2705H26.2726H26.2747H26.2768H26.2789H26.281H26.2831H26.2852H26.2873H26.2893H26.2914H26.2935H26.2955H26.2976H26.2997H26.3017H26.3038H26.3058H26.3079H26.3099H26.3119H26.314H26.316H26.318H26.3201H26.3221H26.3241H26.3261H26.3281H26.3301H26.3321H26.3341H26.3361H26.3381H26.3401H26.3421H26.344H26.346H26.348H26.35H26.3519H26.3539H26.3558H26.3578H26.3597H26.3617H26.3636H26.3655H26.3675H26.3694H26.3713H26.3732H26.3751H26.3771H26.379H26.3809H26.3827H26.3846H26.3865H26.3884H26.3903H26.3922H26.394H26.3959H26.3977H26.3996H26.4014H26.4033H26.4051H26.407H26.4088H26.4106H26.4124H26.4143H26.4161H26.4179H26.4197H26.4215H26.4233H26.4251H26.4268H26.4286H26.4304H26.4322H26.4339H26.4357H26.4374H26.4392H26.4409H26.4427H26.4444H26.4461H26.4478H26.4495H26.4513H26.453H26.4547H26.4564H26.458H26.4597H26.4614H26.4631H26.4647H26.4664H26.4681H26.4697H26.4714H26.473H26.4746H26.4763H26.4779H26.4795H26.4811H26.4827H26.4843H26.4859H26.4875H26.4891H26.4907H26.4922H26.4938H26.4954H26.4969H26.4985H26.5C30.6864 27 33.875 30.1886 33.875 34.375C33.875 35.3358 33.6381 36.0546 33.3757 36.8419L33.1563 37.5H33.85H44.6125H44.9067L45.0496 37.2428C46.3823 34.8439 47.4645 32.1505 47.7354 29.1703ZM12.5875 41.75H11.2359L12.2621 42.6296C16.0131 45.8448 20.8502 48 26.2375 48C31.6184 48 36.7189 45.8495 40.4754 42.6296L41.5016 41.75H40.15H12.5875ZM26.5 0.75C33.444 0.75 39.8821 3.57684 44.7838 8.21619C49.4232 13.1179 52.25 19.556 52.25 26.5C52.25 40.6614 40.6614 52.25 26.5 52.25C12.3386 52.25 0.75 40.6614 0.75 26.5C0.75 19.556 3.57684 13.1179 8.21618 8.21618C13.1179 3.57684 19.556 0.75 26.5 0.75ZM26.5 31.25C25.5989 31.25 24.8091 31.5526 24.2433 32.1183C23.6776 32.6841 23.375 33.4739 23.375 34.375C23.375 35.2761 23.6776 36.0659 24.2433 36.6317C24.8091 37.1974 25.5989 37.5 26.5 37.5C27.4011 37.5 28.1909 37.1974 28.7567 36.6317C29.3224 36.0659 29.625 35.2761 29.625 34.375C29.625 33.4739 29.3224 32.6841 28.7567 32.1183C28.1909 31.5526 27.4011 31.25 26.5 31.25Z" fill="#C92626" stroke="#E7E7E7"/>
</svg>
