<svg width="56" height="56" viewBox="0 0 56 56" fill="none" xmlns="http://www.w3.org/2000/svg">
<path d="M28.0003 43.5996V33.1997C28.0003 33.1997 17.6004 27.9997 19.3337 24.5331C22.8003 17.5998 28.0003 14.1332 31.4669 12.3999C34.9335 21.0665 43.6001 24.5331 43.6001 24.5331M14.1337 27.9997H3.73384M12.4004 21.0665H2.00053M2.59973 40.1144C2.21147 41.2047 2 42.3781 2 43.6001C2 49.3426 6.65742 54 12.3999 54C18.1441 54 22.7998 49.3426 22.7998 43.6001C22.7998 40.0087 20.9816 36.802 18.2169 34.9335H5.46664M22.8003 30.0073C22.8003 30.0073 25.7244 22.8001 34.391 17.6002M54 43.5996C54 37.8571 49.3426 33.1997 43.6001 33.1997C37.8576 33.1997 33.2002 37.8571 33.2002 43.5996C33.2002 49.3421 37.8576 53.9995 43.6001 53.9995C49.3426 53.9995 54 49.3421 54 43.5996ZM40.1335 5.46663C40.1335 3.55305 38.5804 2 36.6668 2C34.7533 2 33.2002 3.55305 33.2002 5.46663C33.2002 7.38021 34.7533 8.93326 36.6668 8.93326C38.5804 8.93326 40.1335 7.38021 40.1335 5.46663Z" stroke="#C92626" stroke-width="3.3" stroke-linecap="round" stroke-linejoin="round"/>
</svg>
