<svg width="96" height="16" viewBox="0 0 96 16" fill="none" xmlns="http://www.w3.org/2000/svg">
<path d="M9.15327 2.34001L10.3266 4.68668C10.4866 5.01334 10.9133 5.32668 11.2733 5.38668L13.3999 5.74001C14.7599 5.96668 15.0799 6.95334 14.0999 7.92668L12.4466 9.58001C12.1666 9.86001 12.0133 10.4 12.0999 10.7867L12.5733 12.8333C12.9466 14.4533 12.0866 15.08 10.6533 14.2333L8.65994 13.0533C8.29994 12.84 7.70661 12.84 7.33994 13.0533L5.34661 14.2333C3.91994 15.08 3.05327 14.4467 3.42661 12.8333L3.89994 10.7867C3.98661 10.4 3.83327 9.86001 3.55327 9.58001L1.89994 7.92668C0.926606 6.95334 1.23994 5.96668 2.59994 5.74001L4.72661 5.38668C5.07994 5.32668 5.50661 5.01334 5.66661 4.68668L6.83994 2.34001C7.47994 1.06668 8.51994 1.06668 9.15327 2.34001Z" fill="#C42624"/>
<path d="M29.1533 2.34001L30.3266 4.68668C30.4866 5.01334 30.9133 5.32668 31.2733 5.38668L33.3999 5.74001C34.7599 5.96668 35.0799 6.95334 34.0999 7.92668L32.4466 9.58001C32.1666 9.86001 32.0133 10.4 32.0999 10.7867L32.5733 12.8333C32.9466 14.4533 32.0866 15.08 30.6533 14.2333L28.6599 13.0533C28.2999 12.84 27.7066 12.84 27.3399 13.0533L25.3466 14.2333C23.9199 15.08 23.0533 14.4467 23.4266 12.8333L23.8999 10.7867C23.9866 10.4 23.8333 9.86001 23.5533 9.58001L21.8999 7.92668C20.9266 6.95334 21.2399 5.96668 22.5999 5.74001L24.7266 5.38668C25.0799 5.32668 25.5066 5.01334 25.6666 4.68668L26.8399 2.34001C27.4799 1.06668 28.5199 1.06668 29.1533 2.34001Z" fill="#C42624"/>
<path d="M49.1533 2.34001L50.3266 4.68668C50.4866 5.01334 50.9133 5.32668 51.2733 5.38668L53.3999 5.74001C54.7599 5.96668 55.0799 6.95334 54.0999 7.92668L52.4466 9.58001C52.1666 9.86001 52.0133 10.4 52.0999 10.7867L52.5733 12.8333C52.9466 14.4533 52.0866 15.08 50.6533 14.2333L48.6599 13.0533C48.2999 12.84 47.7066 12.84 47.3399 13.0533L45.3466 14.2333C43.9199 15.08 43.0533 14.4467 43.4266 12.8333L43.8999 10.7867C43.9866 10.4 43.8333 9.86001 43.5533 9.58001L41.8999 7.92668C40.9266 6.95334 41.2399 5.96668 42.5999 5.74001L44.7266 5.38668C45.0799 5.32668 45.5066 5.01334 45.6666 4.68668L46.8399 2.34001C47.4799 1.06668 48.5199 1.06668 49.1533 2.34001Z" fill="#C42624"/>
<path d="M69.1533 2.34001L70.3266 4.68668C70.4866 5.01334 70.9133 5.32668 71.2733 5.38668L73.3999 5.74001C74.7599 5.96668 75.0799 6.95334 74.0999 7.92668L72.4466 9.58001C72.1666 9.86001 72.0133 10.4 72.0999 10.7867L72.5733 12.8333C72.9466 14.4533 72.0866 15.08 70.6533 14.2333L68.6599 13.0533C68.2999 12.84 67.7066 12.84 67.3399 13.0533L65.3466 14.2333C63.9199 15.08 63.0533 14.4467 63.4266 12.8333L63.8999 10.7867C63.9866 10.4 63.8333 9.86001 63.5533 9.58001L61.8999 7.92668C60.9266 6.95334 61.2399 5.96668 62.5999 5.74001L64.7266 5.38668C65.0799 5.32668 65.5066 5.01334 65.6666 4.68668L66.8399 2.34001C67.4799 1.06668 68.5199 1.06668 69.1533 2.34001Z" fill="#C42624"/>
<g clip-path="url(#clip0_1_896)">
<path d="M89.1533 2.34001L90.3266 4.68668C90.4866 5.01334 90.9133 5.32668 91.2733 5.38668L93.3999 5.74001C94.7599 5.96668 95.0799 6.95334 94.0999 7.92668L92.4466 9.58001C92.1666 9.86001 92.0133 10.4 92.0999 10.7867L92.5733 12.8333C92.9466 14.4533 92.0866 15.08 90.6533 14.2333L88.6599 13.0533C88.2999 12.84 87.7066 12.84 87.3399 13.0533L85.3466 14.2333C83.9199 15.08 83.0533 14.4467 83.4266 12.8333L83.8999 10.7867C83.9866 10.4 83.8333 9.86001 83.5533 9.58001L81.8999 7.92668C80.9266 6.95334 81.2399 5.96668 82.5999 5.74001L84.7266 5.38668C85.0799 5.32668 85.5066 5.01334 85.6666 4.68668L86.8399 2.34001C87.4799 1.06668 88.5199 1.06668 89.1533 2.34001Z" fill="#C42624"/>
</g>
<g clip-path="url(#clip1_1_896)">
<path d="M88.7061 2.56362L88.7056 2.56268C88.4251 1.99866 88.14 1.88501 87.9991 1.88501C87.8574 1.88501 87.5707 1.99971 87.2869 2.56409C87.2868 2.56425 87.2868 2.5644 87.2867 2.56455L86.1146 4.90869C85.9897 5.16256 85.7811 5.37948 85.5669 5.53832C85.352 5.69763 85.0851 5.83297 84.8103 5.87962L84.8086 5.87992L82.6821 6.23321C82.6821 6.23322 82.682 6.23323 82.6819 6.23325C82.0888 6.33215 81.8959 6.56568 81.8512 6.70544C81.8065 6.8457 81.8288 7.14846 82.2535 7.57312L83.9068 9.22646C84.1218 9.44139 84.2655 9.72879 84.3448 10.0057C84.4241 10.2829 84.4538 10.6017 84.3878 10.896L84.3871 10.8993L84.3871 10.8993L83.9137 12.946L83.9137 12.9461C83.7375 13.7079 83.9158 13.9859 84.0063 14.0519C84.0973 14.1183 84.4175 14.2033 85.0914 13.8034L85.0919 13.8031L87.0852 12.6231L87.0885 12.6212L87.0885 12.6212C87.3658 12.4598 87.6978 12.3933 88.0024 12.3933C88.3066 12.3933 88.6389 12.4597 88.9148 12.6232L90.9076 13.8028L88.7061 2.56362ZM88.7061 2.56362L89.8785 4.90857C90.0035 5.16264 90.2123 5.37983 90.4281 5.53901C90.6447 5.69883 90.9135 5.83361 91.1911 5.87987L91.1913 5.87992L93.3177 6.23321M88.7061 2.56362L93.3177 6.23321M93.3177 6.23321C93.3178 6.23322 93.3179 6.23323 93.318 6.23325C93.9116 6.33223 94.1064 6.56617 94.1514 6.70635C94.1961 6.84542 94.1751 7.14736 93.7476 7.57192L93.7464 7.57312M93.3177 6.23321L93.7464 7.57312M93.7464 7.57312L92.0931 9.22646C91.8781 9.44139 91.7344 9.72879 91.6551 10.0057C91.5757 10.2829 91.5461 10.6017 91.612 10.896L91.612 10.896M93.7464 7.57312L91.612 10.896M91.612 10.896L91.6128 10.8993M91.612 10.896L91.6128 10.8993M91.6128 10.8993L92.086 12.9456M91.6128 10.8993L92.086 12.9456M92.086 12.9456C92.263 13.7134 92.0847 13.9898 91.9962 14.0543C91.9069 14.1194 91.5874 14.2043 90.908 13.8031L92.086 12.9456Z" stroke="#C42624" stroke-linecap="round" stroke-linejoin="round"/>
</g>
<defs>
<clipPath id="clip0_1_896">
<rect width="8" height="16" fill="white" transform="translate(80)"/>
</clipPath>
<clipPath id="clip1_1_896">
<rect width="8" height="16" fill="white" transform="translate(88)"/>
</clipPath>
</defs>
</svg>
